<svg aria-hidden="true" style="width:0;height:0;position:absolute;overflow:hidden" xmlns="http://www.w3.org/2000/svg"><defs><symbol id="light-mode-toggle-icon" viewBox="0 0 64 32"><path d="M16 0h.023c2.753 0 5.353.707 7.624 1.95H49.94c3.861 0 7.374 1.581 9.921 4.129C62.409 8.622 63.99 12.136 63.99 16s-1.582 7.378-4.127 9.923l-.053.047c-2.542 2.518-6.035 4.079-9.871 4.079H23.651a15.87 15.87 0 0 1-7.629 1.95h-.023c-4.399 0-8.401-1.801-11.301-4.699C1.8 24.402-.001 20.401-.001 15.999s1.8-8.404 4.698-11.302l.114-.104C7.704 1.755 11.659-.001 15.999-.001zm-.744 6.801V8.42a.888.888 0 0 0 1.772 0V6.801a.875.875 0 0 0-.242-.606l-.017-.02a.887.887 0 0 0-1.512.626zm.756 3.896a5.299 5.299 0 0 0-5.304 5.302 5.29 5.29 0 0 0 1.553 3.749c.961.96 2.286 1.553 3.751 1.553s2.79-.594 3.749-1.553a5.284 5.284 0 0 0 1.553-3.749 5.29 5.29 0 0 0-1.553-3.749 5.284 5.284 0 0 0-3.749-1.553zm-7.04-.667 1.146 1.145c.174.171.4.259.625.259h.001a.892.892 0 0 0 .885-.886.879.879 0 0 0-.26-.626l-1.145-1.145a.888.888 0 0 0-1.511.627c0 .244.099.466.259.626zm-2.159 6.725H8.431a.884.884 0 0 0 .885-.885v-.001a.885.885 0 0 0-.885-.885H6.812a.88.88 0 0 0-.607.242l-.019.018a.885.885 0 0 0 .626 1.511zm3.227 6.284 1.145-1.146a.88.88 0 0 0 .26-.624.886.886 0 0 0-.886-.886h-.002a.877.877 0 0 0-.606.242l-1.164 1.161a.885.885 0 0 0 .627 1.511h.001a.879.879 0 0 0 .624-.259zm6.726 2.161v-1.619a.884.884 0 0 0-.259-.626.886.886 0 0 0-1.513.626V25.2c0 .235.092.449.242.606l.016.019a.888.888 0 0 0 1.512-.625zm6.284-3.228-1.146-1.145a.89.89 0 0 0-.625-.26.888.888 0 0 0-.885.886v.001c0 .244.099.466.259.626l1.145 1.145a.885.885 0 0 0 1.511-.627v-.002a.879.879 0 0 0-.259-.624zm2.161-6.727h-1.619a.887.887 0 0 0 .001 1.772h1.619a.886.886 0 0 0 .606-.242l.019-.017a.888.888 0 0 0-.625-1.512zm-3.228-6.284-1.145 1.146a.886.886 0 0 0 .626 1.511.887.887 0 0 0 .607-.241l1.165-1.164a.883.883 0 0 0 .259-.625.89.89 0 0 0-.887-.886.881.881 0 0 0-.625.259zm4.27-5.233c.37.309.726.634 1.066.975 2.902 2.893 4.703 6.895 4.703 11.297s-1.802 8.402-4.699 11.301c-.332.331-.678.649-1.037.951l-.025.02H49.94c3.353 0 6.404-1.364 8.626-3.562l.04-.044c2.223-2.223 3.606-5.293 3.606-8.666s-1.382-6.443-3.606-8.667a12.22 12.22 0 0 0-8.666-3.604H26.254zM16 1.89C8.24 1.89 1.89 8.24 1.89 16c0 7.761 6.358 14.11 14.11 14.11h.023c7.753 0 14.109-6.349 14.109-14.11 0-7.76-6.349-14.11-14.109-14.11H16z"/></symbol></defs></svg>