<svg aria-hidden="true" style="width:0;height:0;position:absolute;overflow:hidden" xmlns="http://www.w3.org/2000/svg"><defs><symbol id="dark-mode-toggle-icon" viewBox="0 0 62 32"><path d="M38.564 2.015H13.498A13.454 13.454 0 0 0 3.965 5.98 13.452 13.452 0 0 0 0 15.514a13.45 13.45 0 0 0 3.965 9.533 13.452 13.452 0 0 0 9.533 3.965h23.526a15.903 15.903 0 0 0 9.284 2.987h.022c4.4 0 8.402-1.8 11.301-4.699 2.897-2.899 4.699-6.899 4.699-11.301 0-4.401-1.799-8.404-4.703-11.297C54.725 1.801 50.724-.001 46.33-.001h-.022c-2.802 0-5.444.733-7.744 2.015zm8.597 11.829.052.011c.1-.42.345-.754.735-.993.39-.241.795-.313 1.219-.213l.012-.052a1.56 1.56 0 0 1-.995-.734c-.241-.392-.313-.797-.213-1.219l-.052-.012c-.1.422-.345.755-.734.996-.391.241-.797.312-1.22.212l-.012.052c.422.1.755.346.996.735.242.388.312.794.212 1.217zm4.489 2.042.065.015c.124-.53.432-.947.923-1.249.489-.303.998-.392 1.529-.267l.016-.065c-.53-.125-.947-.432-1.249-.924-.303-.491-.392-1.001-.268-1.529l-.065-.015c-.124.53-.432.946-.923 1.249-.489.303-.999.392-1.529.267l-.016.065c.531.125.947.432 1.249.923.303.489.392 1.001.268 1.53zm-4.722-7.428a6.158 6.158 0 1 0 6.556 10.338c.578-.465 1.176-.055.924.531a8.462 8.462 0 0 1-16.214-3.93 8.443 8.443 0 0 1 8.486-7.851c.817.007.99.548.248.911zm-.62-6.567h.022c7.761 0 14.111 6.349 14.111 14.109S54.083 30.111 46.33 30.111h-.022c-7.752 0-14.111-6.35-14.111-14.111s6.35-14.109 14.111-14.109z"/></symbol></defs></svg>