<svg aria-hidden="true" style="position: absolute; width: 0; height: 0; overflow: hidden;" version="1.1" xmlns="http://www.w3.org/2000/svg" xmlns:xlink="http://www.w3.org/1999/xlink">
<defs>
<symbol id="dark-mode-toggle-icon" viewBox="0 0 62 32">
<path d="M38.564 2.015h-25.066c-3.713 0-7.088 1.519-9.533 3.965-2.447 2.446-3.965 5.82-3.965 9.534 0 3.713 1.518 7.088 3.965 9.533 2.446 2.447 5.82 3.965 9.533 3.965h23.526c2.622 1.878 5.831 2.987 9.284 2.987h0.022c4.4 0 8.402-1.8 11.301-4.699 2.897-2.899 4.699-6.899 4.699-11.301 0-4.401-1.799-8.404-4.703-11.297-2.902-2.901-6.903-4.703-11.297-4.703h-0.022c-2.802 0-5.444 0.733-7.744 2.015zM47.161 13.844l0.052 0.011c0.1-0.42 0.345-0.754 0.735-0.993 0.39-0.241 0.795-0.313 1.219-0.213l0.012-0.052c-0.422-0.1-0.755-0.345-0.995-0.734-0.241-0.392-0.313-0.797-0.213-1.219l-0.052-0.012c-0.1 0.422-0.345 0.755-0.734 0.996-0.391 0.241-0.797 0.312-1.22 0.212l-0.012 0.052c0.422 0.1 0.755 0.346 0.996 0.735 0.242 0.388 0.312 0.794 0.212 1.217zM51.65 15.886l0.065 0.015c0.124-0.53 0.432-0.947 0.923-1.249 0.489-0.303 0.998-0.392 1.529-0.267l0.016-0.065c-0.53-0.125-0.947-0.432-1.249-0.924-0.303-0.491-0.392-1.001-0.268-1.529l-0.065-0.015c-0.124 0.53-0.432 0.946-0.923 1.249-0.489 0.303-0.999 0.392-1.529 0.267l-0.016 0.065c0.531 0.125 0.947 0.432 1.249 0.923 0.303 0.489 0.392 1.001 0.268 1.53zM46.928 8.458c-1.91 0.934-3.285 2.832-3.444 5.104-0.239 3.394 2.319 6.338 5.712 6.576 1.611 0.113 3.121-0.404 4.288-1.342 0.578-0.465 1.176-0.055 0.924 0.531-1.379 3.216-4.681 5.361-8.368 5.102-4.661-0.327-8.173-4.372-7.846-9.032 0.313-4.467 4.056-7.891 8.486-7.851 0.817 0.007 0.99 0.548 0.248 0.911zM46.308 1.891h0.022c7.761 0 14.111 6.349 14.111 14.109s-6.358 14.111-14.111 14.111h-0.022c-7.752 0-14.111-6.35-14.111-14.111s6.35-14.109 14.111-14.109z"></path>
</symbol>
</defs>
</svg>
