<svg aria-hidden="true" style="position:absolute;width:0;height:0;overflow:hidden" xmlns="http://www.w3.org/2000/svg"><defs><symbol id="icon-girl4" viewBox="0 0 32 32"><path fill="#f2d4cf" style="fill:var(--color1, #f2d4cf)" d="M17.89 22.486a33.855 33.855 0 0 1-5.08-.863l.233.049c-3.232-.805-6.357-2.227-8.822-4.467 2.175-2.271 3.36-3.581 5.066-6.225 1.265-1.958 2.82-5.402 5.165-6.289 3.674-1.391 8.637-.039 9.681 4.094.442 1.747.459 3.574.208 5.351-.113.801-.923 8.621-1.389 8.614-1.689-.029-3.381-.098-5.062-.265z"/><path fill="#f2a196" style="fill:var(--color2, #f2a196)" d="M27.777 24.49a16.015 16.015 0 0 1-9.835 3.348 16.058 16.058 0 0 1-9.982-3.461l.034.026 4.25-1.992c.153-.073.278-.141.398-.215l-.018.01.098-.061.103-.068a4.098 4.098 0 0 0 1.271-1.417l.011-.022c.349-.66.465-1.388.47-2.13 0-.5-.027-.999-.032-1.5l-.009-.831.175.087.454.235 5.364.913.082 2.795.041 1.386 1.002.408.786.318z"/><path fill="#e88870" style="fill:var(--color3, #e88870)" d="M20.601 19.499c-.238.147-.462.216-.659.195-1.292-.139-3.812-1.151-5.398-3.025q0-.138-.005-.275l-.009-.831.175.087.454.235 5.362.912z"/><path fill="#f2a196" style="fill:var(--color2, #f2a196)" d="M13.838 13.381a1.485 1.485 0 1 1-2.97 0 1.485 1.485 0 0 1 2.97 0z"/><path fill="#e88870" style="fill:var(--color3, #e88870)" d="M14.362 13.207a1.485 1.485 0 1 1-2.97 0 1.485 1.485 0 0 1 2.97 0z"/><path fill="#f2a196" style="fill:var(--color2, #f2a196)" d="M22.449 11.132c1.026 3.554-1.153 7.85-2.493 7.85-1.834 0-6.289-1.465-7.314-5.019s.335-7.068 3.042-7.848 5.735 1.464 6.764 5.017z"/><path fill="#00214e" style="fill:var(--color4, #00214e)" d="M18.241 12.262a1.324 1.324 0 1 1-2.649 0 1.324 1.324 0 0 1 2.649 0zM22.727 12.049a1.324 1.324 0 1 1-2.649 0 1.324 1.324 0 0 1 2.649 0z"/><path fill="#f2d4cf" style="fill:var(--color1, #f2d4cf)" d="M19.712 6.381c-.376 1.634-1.197 3.021-2.696 4.031-1.618 1.118-3.477 1.278-5.34 1.647.047-1.145.072-2.372.663-3.394a6.998 6.998 0 0 1 2.784-2.634l.039-.018c1.294-.668 3.295-1.323 4.747-.86a9.894 9.894 0 0 1-.21 1.293l.013-.066z"/><path fill="#ff2609" style="fill:var(--color5, #ff2609)" d="M27.777 24.49a16.015 16.015 0 0 1-9.835 3.348 16.058 16.058 0 0 1-9.982-3.461l.034.026 4.25-1.992c.224-.106.414-.217.594-.343l-.013.009a4.087 4.087 0 0 0 1.271-1.418l.011-.021a3.83 3.83 0 0 0 .403-1.244l.002-.021c.06.058.123.113.189.165l.005.004a8.258 8.258 0 0 0 1.678.964l.054.021c.238.104.542.214.852.307l.061.016a8 8 0 0 0 2.287.327c.21 0 .417-.008.623-.023l-.027.002c.135-.01.27-.024.404-.033l.013.444v.029l1.057.43z"/><path fill="#fff" style="fill:var(--color6, #fff)" d="M16.946 15.112a.163.163 0 0 1 .235-.045c.181.128.513.398.984.493.643.128 1.201-.129 1.334.037.075.093-.017.207-.192.354a1.709 1.709 0 0 1-1.307.32l.01.001c-.619-.115-1.083-.832-1.083-1.086v-.002c0-.026.007-.051.02-.073v.001z"/></symbol><symbol id="icon-boy5" viewBox="0 0 32 32"><path fill="#de8276" style="fill:var(--color7, #de8276)" d="M25.892 24.633a16.015 16.015 0 0 1-9.835 3.348 16.058 16.058 0 0 1-9.982-3.461l.034.026 4.25-1.992c.224-.106.414-.217.594-.343l-.013.009a4.087 4.087 0 0 0 1.271-1.418l.011-.021a3.83 3.83 0 0 0 .403-1.244l.002-.021c.041-.26.064-.56.065-.865 0-.5-.027-.999-.032-1.5l-.009-.831.175.087.454.235 5.364.913.082 2.795.027.914.013.444v.029l1.057.43z"/><path fill="#a76962" style="fill:var(--color8, #a76962)" d="M18.748 21.737a1.392 1.392 0 0 1-.887-.14l.008.004-5.212-4.261c-.006-.197-.011.01-.014-.188l-.009-.831.175.087.454.235 5.364.913.082 2.795.027.914.013.444v.029z"/><path style="fill:var(--color9, #000)" d="M21.438 13.967c-.134.14-.279.266-.435.379l-.009.006c-.908.658-2.121.873-3.157 1.228-.437.149-5.173 1.495-5.173 1.788 0-.064-.464-.524-1.048-1.083a6.964 6.964 0 0 1-2.152-5.041c0-.88.163-1.721.46-2.496l-.016.048c.953-2.504 3.991-4.23 6.536-4.63 1.212-.19 2.649-.295 3.768.286.572.298 1.048.732 1.485 1.213q.204.228.397.466c.055.066.109.133.162.2 1.989 2.498 1.284 5.429-.817 7.636z"/><path style="fill:var(--color9, #000)" d="M21.438 13.967c-.134.14-.279.266-.435.379l-.009.006a1.821 1.821 0 0 1-.096-.188l-.005-.013c-.231-.524-.349-1.093-.437-1.66a22.332 22.332 0 0 1-.275-2.423L20.178 10c-.079-1.34-.652-2.005.487-3.049a3.734 3.734 0 0 1 1.402-.812l.027-.007c.055.066.109.133.162.2 1.989 2.497 1.284 5.428-.817 7.635z"/><path fill="#e18477" style="fill:var(--color10, #e18477)" d="M13.276 13.876a1.485 1.485 0 1 1-2.97 0 1.485 1.485 0 0 1 2.97 0z"/><path fill="#a76962" style="fill:var(--color8, #a76962)" d="M13.592 13.876a1.329 1.329 0 1 1-2.658 0 1.329 1.329 0 0 1 2.658 0z"/><path fill="#de8276" style="fill:var(--color7, #de8276)" d="M12.373 12.468c.072.949.07 2.107.095 2.446l.196 2.548 5.804 3.39a1.726 1.726 0 0 0 2.151-.851l.005-.01c.835-1.71 2.175-4.411 1.999-5.416-.262-1.485-.961-2.009-.961-2.009l.291-1.742c.294-1.771-.313-3.447-2.381-3.641-.437-.04-.923.043-1.183.391-.699.94-.296 2.096-1.345 2.97-1.274 1.051-4.115 1.509-4.781.661 0 0 .061.6.111 1.261z"/><path fill="#00214e" style="fill:var(--color4, #00214e)" d="M17.979 13.153a1.324 1.324 0 1 1-2.649 0 1.324 1.324 0 0 1 2.649 0zM22.466 12.939a1.324 1.324 0 1 1-2.649 0 1.324 1.324 0 0 1 2.649 0zM25.892 24.633a16.015 16.015 0 0 1-9.835 3.348 16.058 16.058 0 0 1-9.982-3.461l.034.026 4.25-1.992c.224-.106.414-.217.594-.343l-.013.009a4.087 4.087 0 0 0 1.271-1.418l.011-.021a3.83 3.83 0 0 0 .403-1.244l.002-.021c.06.058.123.113.189.165l.005.004c.5.374 1.07.704 1.677.963l.054.021c.238.104.542.214.852.307l.061.016a8 8 0 0 0 2.287.327c.21 0 .417-.008.623-.023l-.027.002c.135-.01.27-.024.404-.033l.013.444v.029l1.057.43z"/><path fill="#00214e" style="fill:var(--color4, #00214e)" d="M16.272 12.425c.533 0 .533.819 0 .824h-.024c-.534 0-.534-.819 0-.824h.024zM20.651 12.303c.494.004.494.76 0 .764h-.023c-.494 0-.494-.76 0-.764h.023z"/></symbol><symbol id="icon-boy4" viewBox="0 0 32 32"><path fill="#f2a196" style="fill:var(--color2, #f2a196)" d="M25.892 24.688a16.015 16.015 0 0 1-9.835 3.348 16.058 16.058 0 0 1-9.982-3.461l.034.026 4.25-1.992c.224-.106.414-.217.594-.343l-.013.009a4.087 4.087 0 0 0 1.271-1.418l.011-.021c.196-.368.338-.796.403-1.248l.002-.021c.041-.26.064-.56.065-.865 0-.5-.027-.999-.032-1.5l-.009-.831.175.087.454.235 5.364.913.082 2.795.027.914.013.444v.029l1.057.43z"/><path style="fill:var(--color9, #000)" d="M25.892 24.688a16.015 16.015 0 0 1-9.835 3.348 16.058 16.058 0 0 1-9.982-3.461l.034.026 4.25-1.992c.224-.106.414-.217.594-.343l-.013.009c.056-.038.112-.079.165-.121 2.057 1.464 4.865 2.387 7.293 1.295.578-.262 1.109-.685 1.424-1.228z"/><path fill="#e88870" style="fill:var(--color3, #e88870)" d="M18.764 21.761c-.913.055-1.834-.653-2.786-1.201-1.783-1.03-2.832-2.353-2.489-3.826l5.154.877.082 2.795z"/><path fill="#00214e" style="fill:var(--color4, #00214e)" d="M22.951 7.727c.449 1.747-.282 3.38-.987 4.979-.892 2.02-2.172 2.261-4.127 2.928-.437.15-5.173 1.495-5.173 1.789 0-.064-.464-.524-1.048-1.084-2.096-1.991-2.786-5.066-1.538-7.704 1.66-3.504 6.605-4.13 10-3.278 1.171.293 2.313.756 2.752 1.97.045.135.086.268.121.401z"/><path fill="#f2a196" style="fill:var(--color2, #f2a196)" d="M13.276 13.928a1.485 1.485 0 1 1-2.97 0 1.485 1.485 0 0 1 2.97 0z"/><path fill="#e88870" style="fill:var(--color3, #e88870)" d="M13.592 13.928a1.329 1.329 0 1 1-2.658 0 1.329 1.329 0 0 1 2.658 0z"/><path fill="#f2a196" style="fill:var(--color2, #f2a196)" d="m12.281 12.527.383 4.979 5.804 3.391a1.726 1.726 0 0 0 2.151-.851l.005-.01c.835-1.71 2.175-4.41 1.999-5.416-.262-1.485-.961-2.009-.961-2.009l.291-1.742c.109-.656.25-1.341.087-2-.186-.756-.757-1.079-1.227-1.644-1.237 1.593-3.27 2.494-5.046 3.407-.916.482-3.484 1.896-3.484 1.896z"/><path fill="#fff" style="fill:var(--color6, #fff)" d="M16.786 16.208a.162.162 0 0 1 .234-.044c.182.128.514.398.985.492.643.128 1.2-.129 1.334.037.075.093-.017.208-.192.354a1.71 1.71 0 0 1-1.308.321l.01.001c-.618-.116-1.083-.832-1.083-1.087 0-.027.007-.053.02-.075v.001z"/><path fill="#00214e" style="fill:var(--color4, #00214e)" d="M16.509 12.362c.534 0 .534.819 0 .824h-.024c-.533 0-.533-.819 0-.824h.024zM20.892 12.24c.494.004.494.76 0 .764h-.022c-.495 0-.495-.76 0-.764h.022z"/><path fill="#845161" style="fill:var(--color11, #845161)" d="M20.877 5.617c-1.95.038-3.82.307-5.607.78l.165-.037a23.525 23.525 0 0 0-5.285 1.977l.131-.062c.39-1.802 2.174-3.465 4.607-4.076s4.79.015 5.989 1.419z"/></symbol><symbol id="icon-boy3" viewBox="0 0 32 32"><path style="fill:var(--color9, #000)" d="M23.518 7.762a3.586 3.586 0 0 1-.499 2.328l.009-.016c-.413.707-.56 1.429-.815 2.184-.211.63-.245 1.485-.618 2.043-.817 1.223-2.4 1.433-3.69 1.873a1.02 1.02 0 0 0-.252.082l.006-.003-.457.144q-.656.207-1.31.419c-.494.16-.987.323-1.478.494-.219.077-.445.146-.661.228-.124.046-.196.175-.276.278a4.37 4.37 0 0 0-.338.558l-.012.026a.191.191 0 0 1-.049.063.146.146 0 0 1-.073.018h-.004a.741.741 0 0 1-.524-.235c-.414-.402-.71-.961-.984-1.46a6.772 6.772 0 0 1-.419-.857l-.017-.048a7.167 7.167 0 0 1-.259-.891l-.01-.053c-.581-2.417-1.99-5.066-.514-7.488.565-.926 1.498-1.566 2.458-2.071 1.454-.765 3.057-1.291 4.704-1.31 2.036-.027 5.399 1.06 5.999 3.288.029.106.058.24.078.377l.002.02z"/><path fill="#f2a196" style="fill:var(--color2, #f2a196)" d="M25.892 24.591a16.015 16.015 0 0 1-9.835 3.348 16.058 16.058 0 0 1-9.982-3.461l.034.026 4.25-1.992c.224-.106.414-.217.594-.343l-.013.009a4.087 4.087 0 0 0 1.271-1.418l.011-.021a3.83 3.83 0 0 0 .403-1.244l.002-.021c.041-.26.064-.56.065-.865 0-.5-.027-.999-.032-1.5l-.009-.831.175.087.454.235 5.364.913.082 2.795.027.914.013.444v.029l1.057.43z"/><path style="fill:var(--color9, #000)" d="M25.892 24.591a16.015 16.015 0 0 1-9.835 3.348 16.058 16.058 0 0 1-9.982-3.461l.034.026 4.25-1.992c.224-.106.414-.217.594-.343l-.013.009c.056-.038.112-.079.165-.121 2.057 1.464 4.865 2.387 7.293 1.295.578-.262 1.109-.685 1.424-1.228z"/><path fill="#e88870" style="fill:var(--color3, #e88870)" d="M18.764 21.663c-.913.055-1.933-.181-2.883-.729-1.783-1.03-2.736-2.826-2.393-4.299l5.154.877.082 2.795z"/><path fill="#f2a196" style="fill:var(--color2, #f2a196)" d="M12.664 13.831a1.485 1.485 0 1 1-2.97 0 1.485 1.485 0 0 1 2.97 0z"/><path fill="#e88870" style="fill:var(--color3, #e88870)" d="M12.98 13.831a1.329 1.329 0 1 1-2.658 0 1.329 1.329 0 0 1 2.658 0z"/><path fill="#f2a196" style="fill:var(--color2, #f2a196)" d="M21.051 12.52s.399.846.423 2.353a7.298 7.298 0 0 1-.321 2.119l.014-.052a16.83 16.83 0 0 1-.392 1.206c-.372 1.028-.725 2.271-1.83 2.716-1.081.437-2.486-.011-3.498-.463a7.479 7.479 0 0 1-2.72-2.076l-.01-.013c-.413-.508-.66-.888-.709-1.522 0-.032-.005-.065-.007-.096q-.065-.814-.125-1.627l-.203-2.636s2.568-1.412 3.484-1.886c1.776-.915 3.809-1.816 5.047-3.407.469.564 1.04.887 1.223 1.643.162.659.022 1.345-.087 2l-.287 1.74z"/><path style="fill:var(--color9, #000)" d="M21.166 16.94a16.83 16.83 0 0 1-.392 1.206c-.372 1.028-.725 2.271-1.83 2.716-1.081.437-2.486-.011-3.498-.463-1.056-.471-2.551-1.634-3.28-2.533-.413-.508-.437-1.73-.437-1.762.993.773 2.698 1.788 3.821 1.238.602-.294 1.191-.68 1.82-.922a3 3 0 0 1 1.327-.229h-.007c.641.044.915.333 1.384.715.154.126.326.257.524.258.218-.015.413-.097.571-.224l-.002.001z"/><path fill="#00214e" style="fill:var(--color4, #00214e)" d="M15.786 12.678c.533-.006.549.809.016.824h-.024c-.533.006-.549-.808-.017-.823h.024zM20.178 12.536c.494-.006.509.75.015.763h-.023c-.494.005-.509-.75-.015-.764h.023z"/></symbol><symbol id="icon-boy2" viewBox="0 0 32 32"><path fill="#00214e" style="fill:var(--color4, #00214e)" d="M24.325 10.965c0 .687-.777 1.264-.947 1.898-.175.657.204 1.543-.128 2.118s-1.299.699-1.771 1.168-.586 1.434-1.169 1.771-1.461-.047-2.117.128c-.634.169-1.211.947-1.899.947s-1.264-.777-1.898-.947c-.656-.175-1.543.204-2.117-.128s-.699-1.298-1.169-1.771-1.434-.585-1.771-1.168.047-1.461-.128-2.118c-.169-.634-.947-1.211-.947-1.898s.777-1.264.947-1.898c.175-.657-.204-1.543.128-2.118s1.299-.699 1.771-1.168.585-1.434 1.169-1.771 1.461.047 2.117-.128c.634-.169 1.211-.947 1.898-.947s1.265.777 1.899.947c.656.175 1.543-.204 2.117.128s.699 1.298 1.169 1.771 1.434.585 1.771 1.168-.048 1.461.128 2.118c.169.634.947 1.211.947 1.898z"/><path fill="#e18477" style="fill:var(--color10, #e18477)" d="M13.262 14.959a1.485 1.485 0 1 1-2.97 0 1.485 1.485 0 0 1 2.97 0z"/><path fill="#a76962" style="fill:var(--color8, #a76962)" d="M13.686 14.871a1.398 1.398 0 1 1-2.796 0 1.398 1.398 0 0 1 2.796 0z"/><path fill="#e18477" style="fill:var(--color10, #e18477)" d="M25.892 25.719a16.015 16.015 0 0 1-9.835 3.348 16.058 16.058 0 0 1-9.982-3.461l.034.026 4.25-1.992c.224-.106.414-.217.594-.343l-.013.009a4.087 4.087 0 0 0 1.271-1.418l.011-.021c.349-.66.465-1.388.47-2.13 0-.5-.027-.999-.032-1.5l-.009-.831.175.087.452.239 5.364.913.082 2.795.04 1.357v.029l1.057.43z"/><path fill="#a76962" style="fill:var(--color8, #a76962)" d="m18.753 22.482-.135.014a4.482 4.482 0 0 1-3.553-1.28l-2.392-2.84c-.008-.253-.017 0-.02-.254l-.009-.831.175.087.454.235 5.364.913.082 2.795z"/><path fill="#e18477" style="fill:var(--color10, #e18477)" d="M12.223 11.936c-.069.087-.13.258-.196.534-.151.64.511 4.844.638 6.081l3.181 2.346a4.513 4.513 0 0 0 3.725.775l-.03.006c.513-.121.838-.2 1.069-.611.447-.786 1.545-3.476 1.617-5.373.02-.538.007-1.359-.325-1.819-.162-.223-.245-.227-.186-.542s.147-.652.219-.979c.2-.902.36-1.922.071-2.82-.154-.48-.425-.798-.811-1.107-.412-.33-.583-.314-.83.175-.167.332-.335.611-.673.8-.49.272-.824.095-1.31.058-.426-.032-.381.297-.474.611-.101.338-.31.617-.586.805l-.005.003a1.612 1.612 0 0 1-1.753.006l.006.004a.409.409 0 0 0-.242-.078h-.007c-.292.016-.305.366-.371.618-.141.524-.753.814-1.297.772-.887-.066-1.204-.561-1.428-.265z"/><path style="fill:var(--color9, #000)" d="M25.892 25.719a16.015 16.015 0 0 1-9.835 3.348 16.058 16.058 0 0 1-9.982-3.461l.034.026 4.25-1.992c.224-.106.414-.217.594-.343l-.013.009c.056-.038.112-.079.165-.121 2.057 1.464 4.865 2.387 7.293 1.295.578-.262 1.109-.685 1.424-1.228z"/><path fill="#00214e" style="fill:var(--color4, #00214e)" d="M16.349 13.359c.534 0 .534.819 0 .824h-.024c-.533-.004-.533-.819 0-.824h.024zM20.741 13.301c.494 0 .494.76 0 .764h-.023c-.494-.004-.494-.76 0-.764h.023z"/></symbol><symbol id="icon-boy1" viewBox="0 0 32 32"><path fill="#f2a196" style="fill:var(--color2, #f2a196)" d="M25.892 25.435a16.015 16.015 0 0 1-9.835 3.348 16.058 16.058 0 0 1-9.982-3.461l.034.026 4.25-1.992c.224-.106.414-.217.594-.343l-.013.009a4.087 4.087 0 0 0 1.271-1.418l.011-.021a3.83 3.83 0 0 0 .403-1.244l.002-.021c.041-.26.064-.56.065-.865 0-.5-.027-.999-.032-1.5l-.009-.831.175.087.454.235 5.364.913.082 2.795.027.914.013.444v.027l1.057.43z"/><path fill="#e88870" style="fill:var(--color3, #e88870)" d="M18.755 22.329a1.392 1.392 0 0 1-.887-.14l.008.004-5.21-4.261c-.006-.197-.011.01-.014-.188l-.009-.831.175.087.454.235 5.364.913.082 2.795.027.914.013.444v.029z"/><path fill="#ff2609" style="fill:var(--color5, #ff2609)" d="M25.892 25.435a16.015 16.015 0 0 1-9.835 3.348 16.058 16.058 0 0 1-9.982-3.461l.034.026 4.25-1.992c.224-.106.414-.217.594-.343l-.013.009c.056-.038.112-.079.165-.121 2.057 1.464 4.865 2.387 7.293 1.295.578-.262 1.109-.685 1.424-1.228z"/><path fill="#f2d4cf" style="fill:var(--color1, #f2d4cf)" d="M24.328 7.94a2.81 2.81 0 0 1-.325.908l.007-.014-.007.012c-.05.087-.103.175-.161.262a6.4 6.4 0 0 1-.506.649l.006-.007-.107.12c-.073.081-.146.161-.219.239a.52.52 0 0 1 .171-.009h-.002a.44.44 0 0 1 .065.011l-.003-.001c.279.058.517.317.591.611.004.019.009.039.012.059.069.391-.087.786-.28 1.136-.338.618-.825 1.03-1.254 1.567-.321.4-.5.873-.85 1.256l-.026.029-.021.021c-.926.954-2.373 1.18-3.581 1.592-.437.15-5.173 1.495-5.173 1.789 0-.064-.464-.524-1.048-1.084-2.096-1.991-2.786-5.066-1.538-7.704 1.341-2.839 4.386-4.865 7.286-5.838.907-.304 1.936-.508 2.795-.087s1.288 1.727.575 2.365a2.269 2.269 0 0 1 1.575-.455l-.008-.001a2.13 2.13 0 0 1 1.373.618c.2.201.364.437.481.7l.006.015c.042.093.083.206.115.323l.004.018a2.132 2.132 0 0 1 .046.913l.002-.013z"/><path fill="#daaea8" style="fill:var(--color12, #daaea8)" d="M24.328 7.94a2.81 2.81 0 0 1-.325.908l.007-.014-.007.012c-.05.087-.103.175-.161.262a6.4 6.4 0 0 1-.506.649l.006-.007-.107.12c-.073.081-.146.161-.219.239a.52.52 0 0 1 .171-.009h-.002a.44.44 0 0 1 .065.011l-.003-.001c.279.058.517.317.591.611.004.019.009.039.012.059.069.391-.087.786-.28 1.136-.338.618-.825 1.03-1.254 1.567-.321.4-.5.873-.85 1.256l-.026.029-.021.021a3.4 3.4 0 0 1-.648-1.594l-.002-.017c-.149-1.209-.059-2.526-.1-3.75-.014-.427-.039-.936.098-1.342.041-.108.091-.201.152-.287l-.003.004c.172-.275.353-.514.552-.736l-.004.005a1.92 1.92 0 0 1 .832-.52l.014-.004c.155-.046.336-.08.523-.097l.011-.001a2.387 2.387 0 0 1 .593.013l-.013-.002c.274.04.52.125.743.248l-.011-.006c.042.093.083.206.115.323l.004.018c.049.172.077.37.077.575 0 .114-.009.225-.025.334l.002-.012z"/><path fill="#f2a196" style="fill:var(--color2, #f2a196)" d="M13.276 14.675a1.485 1.485 0 1 1-2.97 0 1.485 1.485 0 0 1 2.97 0z"/><path fill="#e88870" style="fill:var(--color3, #e88870)" d="M13.592 14.675a1.329 1.329 0 1 1-2.658 0 1.329 1.329 0 0 1 2.658 0z"/><path fill="#f2a196" style="fill:var(--color2, #f2a196)" d="m12.281 13.277.384 4.979 5.804 3.391a1.727 1.727 0 0 0 2.15-.848l.005-.01c.835-1.71 2.175-4.41 1.999-5.416-.262-1.485-.961-2.009-.961-2.009l.291-1.742c.109-.656.25-1.341.087-2-.186-.756-.757-1.079-1.227-1.644-1.237 1.593-3.27 2.494-5.046 3.407-.916.475-3.484 1.892-3.484 1.892z"/><path fill="#fff" style="fill:var(--color6, #fff)" d="M16.786 16.955a.162.162 0 0 1 .234-.044c.182.128.514.398.985.492.643.128 1.2-.129 1.334.037.075.093-.017.208-.192.349a1.71 1.71 0 0 1-1.308.321l.01.001c-.618-.116-1.083-.832-1.083-1.087a.154.154 0 0 1 .02-.071v.001z"/><path fill="#00214e" style="fill:var(--color4, #00214e)" d="M16.556 13.246c.533.004.533.818 0 .823h-.024c-.533-.004-.533-.818 0-.823h.024zM20.946 13.19c.494 0 .494.76 0 .763h-.022c-.495 0-.495-.76 0-.763h.022z"/></symbol><symbol id="icon-girl3" viewBox="0 0 32 32"><path fill="#00214e" style="fill:var(--color4, #00214e)" d="M21.372 9.422c-.37-1.74-.524-3.067-2.026-4.175-1.199-.884-2.731-1.357-4.223-1.239-1.265.1-2.852.55-4.094 1.31a5.2 5.2 0 0 0-1.408 1.223l-.008.01c-.551.727-.946 1.611-1.246 2.549-.452 1.411-.699 2.945-.942 4.255-.424 2.228-.803 4.465-1.183 6.701 2.615.262 16.268.184 16.268.184s-.313-6.95-1.138-10.818zm-6.479 1.785-1.467-.474 4.425-1.66.324.18z"/><path fill="#f2d4cf" style="fill:var(--color1, #f2d4cf)" d="M25.892 24.663a16.015 16.015 0 0 1-9.835 3.348 16.058 16.058 0 0 1-9.982-3.461l.034.026 4.25-1.992c.153-.073.278-.141.398-.215l-.018.01.098-.061.103-.068a4.098 4.098 0 0 0 1.271-1.417l.011-.022c.349-.66.465-1.388.47-2.13 0-.5-.027-.999-.032-1.5l-.009-.831.175.087.454.235 5.362.912.082 2.795.041 1.386 1.002.408.786.318z"/><path fill="#daaea8" style="fill:var(--color12, #daaea8)" d="M18.707 20.056c-.238.147-.462.216-.659.195-1.292-.139-3.812-1.151-5.398-3.025q0-.137-.005-.275l-.009-.831.175.087.454.235 5.364.913z"/><path fill="#ff2609" style="fill:var(--color5, #ff2609)" d="M25.892 24.663a16.015 16.015 0 0 1-9.835 3.348 16.058 16.058 0 0 1-9.982-3.461l.034.026 4.25-1.992q.197-.093.38-.204c2.068 1.521 4.948 2.51 7.43 1.393.704-.316 1.339-.878 1.598-1.599l.786.318z"/><path fill="#f2d4cf" style="fill:var(--color1, #f2d4cf)" d="M11.805 13.442a1.485 1.485 0 1 1-2.97 0 1.485 1.485 0 0 1 2.97 0z"/><path fill="#daaea8" style="fill:var(--color12, #daaea8)" d="M12.329 13.268a1.485 1.485 0 1 1-2.97 0 1.485 1.485 0 0 1 2.97 0z"/><path fill="#f2d4cf" style="fill:var(--color1, #f2d4cf)" d="M20.412 11.193c1.026 3.554-1.153 7.851-2.493 7.851-1.834 0-6.289-1.466-7.314-5.02s.338-7.068 3.046-7.85 5.735 1.466 6.761 5.019z"/><path fill="#00214e" style="fill:var(--color4, #00214e)" d="M14.632 11.895c.382.028.682.179.671.336s-.331.262-.713.234c-.382-.028-.682-.179-.671-.336s.331-.262.713-.234zM19.784 11.879c.036.154-.237.349-.61.437s-.704.034-.741-.119c-.036-.154.237-.349.61-.437s.704-.034.741.119z"/><path fill="#fff" style="fill:var(--color6, #fff)" d="M15.009 15.188a.163.163 0 0 1 .138-.076c.037 0 .07.012.098.032.181.128.513.398.984.492.643.128 1.201-.129 1.334.037.075.093-.017.208-.192.349a1.712 1.712 0 0 1-1.307.326l.01.001c-.619-.116-1.083-.832-1.083-1.086v-.001c0-.027.007-.053.02-.075v.001z"/><path fill="#00214e" style="fill:var(--color4, #00214e)" d="m19.785 8.352-9.664 3.619-.051-2.321-.068-3.132 5.328-1.66 4.455 3.494z"/><path style="fill:var(--color9, #000)" d="m17.851 9.076-4.425 1.66-5.058-1.633c.3-.938.699-1.822 1.246-2.549a5.198 5.198 0 0 1 1.392-1.218l.024-.013c.306.165.652.349 1.024.557 2.048 1.117 4.854 2.672 5.797 3.195z"/></symbol><symbol id="icon-girl2" viewBox="0 0 32 32"><path style="fill:var(--color9, #000)" d="M17.823 5.602a2.678 2.678 0 1 1-5.357.001 2.678 2.678 0 0 1 5.357-.001z"/><path style="fill:var(--color9, #000)" d="M17.459 20.14a28.585 28.585 0 0 1-4.344-.407l.168.024c-2.75-.459-5.442-1.337-7.884-2.69l-.437-.247c2.165-2.055 3.773-4.542 5.131-7.18.978-1.903 1.485-3.159 3.598-3.96 3.674-1.391 8.637-.038 9.682 4.095.441 1.747.458 3.573.207 5.351-.242 1.719-.879 5.03-.879 5.03s-4.557-.003-5.243-.016z"/><path fill="#f2a196" style="fill:var(--color2, #f2a196)" d="M27.035 25.731a16.015 16.015 0 0 1-9.835 3.348 16.058 16.058 0 0 1-9.982-3.461l.034.026 4.25-1.992c.153-.073.278-.141.398-.215l-.018.01.098-.061.103-.068a4.092 4.092 0 0 0 1.271-1.418l.011-.022c.349-.66.465-1.388.47-2.13 0-.408-.017-.816-.027-1.223q0-.138-.005-.275l-.009-.831h.006l.167.087.454.235 5.364.913.062 2.096.017.601v.093l.041 1.386 1.002.408.786.318z"/><path fill="#e88870" style="fill:var(--color3, #e88870)" d="M19.847 20.752a1.049 1.049 0 0 1-.598.185l-.045-.001h.002c-1.292-.139-3.812-1.151-5.398-3.025q0-.138-.005-.275v-.216l.167.087.454.235 5.364.913z"/><path fill="#f2a196" style="fill:var(--color2, #f2a196)" d="M13.094 14.622a1.485 1.485 0 1 1-2.97 0 1.485 1.485 0 0 1 2.97 0z"/><path fill="#e88870" style="fill:var(--color3, #e88870)" d="M13.618 14.447a1.485 1.485 0 1 1-2.97 0 1.485 1.485 0 0 1 2.97 0z"/><path fill="#f2a196" style="fill:var(--color2, #f2a196)" d="M21.701 12.373c1.026 3.553-1.153 7.85-2.493 7.85-1.834 0-6.289-1.466-7.314-5.019s.335-7.068 3.042-7.85 5.739 1.468 6.764 5.019z"/><path fill="#00214e" style="fill:var(--color4, #00214e)" d="M16.184 13.111c.533.004.533.818 0 .823h-.024c-.533-.004-.533-.818 0-.823h.024zM20.575 12.776c.495.004.495.76 0 .764h-.022c-.494 0-.494-.76 0-.764h.022z"/><path style="fill:var(--color9, #000)" d="M18.321 7.648c-.376 1.633-1.197 3.021-2.696 4.031-1.618 1.12-3.325 1.66-5.189 2.031.047-1.145-.079-2.756.512-3.777a6.998 6.998 0 0 1 2.784-2.634l.039-.018c1.294-.668 3.295-1.323 4.748-.86a9.878 9.878 0 0 1-.211 1.294l.013-.067z"/><path fill="#845161" style="fill:var(--color11, #845161)" d="M27.034 25.731a16.015 16.015 0 0 1-9.835 3.348 16.058 16.058 0 0 1-9.982-3.461l.034.026 4.25-1.992c.224-.106.414-.217.594-.343l-.013.009a4.088 4.088 0 0 0 1.272-1.418l.011-.022c.195-.366.337-.792.402-1.242l.002-.021c.06.058.123.113.189.165l.005.004c.5.374 1.07.703 1.677.963l.054.021c.238.104.542.214.852.307l.061.016a8 8 0 0 0 2.287.327c.21 0 .417-.008.623-.023l-.027.002c.135-.01.27-.024.404-.033l.013.444v.029l1.057.43z"/><path fill="#fff" style="fill:var(--color6, #fff)" d="M16.203 16.35a.163.163 0 0 1 .138-.076c.037 0 .07.012.098.032.181.128.513.398.984.492.643.128 1.201-.129 1.334.037.075.093-.017.208-.192.354a1.712 1.712 0 0 1-1.307.321l.01.001c-.619-.116-1.083-.832-1.083-1.087v-.002c0-.027.007-.052.02-.073v.001z"/></symbol><symbol id="icon-girl1" viewBox="0 0 32 32"><path fill="#00214e" style="fill:var(--color4, #00214e)" d="M22.57 13.074c-.036-2.899-.553-6.079-3.172-7.787-2.365-1.543-5.569-1.468-7.916.042-.335.216-.627.44-.898.686l.006-.005a9.2 9.2 0 0 0-2.307 3.345l-.022.062a11.237 11.237 0 0 0-.785 4.761l-.001-.026c.146 3.244-.206 6.498-.206 9.755 0 .113 0 .242.087.314a.367.367 0 0 0 .264.051h-.002c1.364-.076 2.572-.312 3.89-.531 1.642-.273 3.413-.195 5.075-.299.99-.058 2.03-.218 3.02-.175.315.014 3.076.424 3.089.594-.264-3.613-.077-7.177-.121-10.787zm-9.642-.365-1.231-.873a11.407 11.407 0 0 0 2.828-1.422l-.038.025a6.218 6.218 0 0 0 1.892-1.981l.016-.028.499.315z"/><path fill="#f2a196" style="fill:var(--color2, #f2a196)" d="M25.892 24.49a16.015 16.015 0 0 1-9.835 3.348 16.058 16.058 0 0 1-9.982-3.461l.034.026 4.25-1.992c.153-.073.278-.141.398-.215l-.018.01.098-.061.103-.068a4.098 4.098 0 0 0 1.271-1.417l.011-.022c.349-.66.465-1.388.47-2.13 0-.408-.017-.816-.027-1.223q0-.137-.005-.275l-.009-.831h.006l.167.087.454.235 5.364.913.062 2.096.017.601v.093l.041 1.386 1.002.408.786.318z"/><path fill="#e88870" style="fill:var(--color3, #e88870)" d="M18.703 19.512a1.049 1.049 0 0 1-.598.185l-.045-.001h.002c-1.291-.139-3.812-1.151-5.397-3.025q0-.137-.005-.275v-.216l.167.087.454.235 5.364.913z"/><path fill="#f2a196" style="fill:var(--color2, #f2a196)" d="M11.951 13.381a1.485 1.485 0 1 1-2.97 0 1.485 1.485 0 0 1 2.97 0z"/><path fill="#e88870" style="fill:var(--color3, #e88870)" d="M12.475 13.207a1.485 1.485 0 1 1-2.97 0 1.485 1.485 0 0 1 2.97 0z"/><path fill="#f2a196" style="fill:var(--color2, #f2a196)" d="M20.559 11.133c1.026 3.553-1.153 7.85-2.493 7.85-1.834 0-6.289-1.466-7.314-5.019s.342-7.068 3.049-7.849 5.732 1.464 6.757 5.018z"/><path fill="#00214e" style="fill:var(--color4, #00214e)" d="M14.739 11.885c.533.004.533.819 0 .823h-.024c-.533 0-.533-.818 0-.823h.024zM19.118 11.764c.494 0 .494.76 0 .763h-.022c-.495 0-.495-.76 0-.763h.022zM17.377 5.182a9.98 9.98 0 0 1-.212 1.29l.013-.067a7.061 7.061 0 0 1-.804 2.058l.018-.033a6.222 6.222 0 0 1-1.885 1.995l-.022.014a11.185 11.185 0 0 1-2.71 1.373l-.08.024c-.656.234-1.461.452-2.287.613l-.112.018c.027-.666 0-1.491.082-2.265.061-.556.183-1.086.43-1.513a6.995 6.995 0 0 1 2.773-2.628l.038-.018.01-.005c1.292-.665 3.293-1.321 4.747-.856z"/><path fill="#f2d4cf" style="fill:var(--color1, #f2d4cf)" d="M25.892 24.49a16.015 16.015 0 0 1-9.835 3.348 16.058 16.058 0 0 1-9.982-3.461l.034.026 4.25-1.992c.224-.106.414-.217.594-.343l-.013.009a4.087 4.087 0 0 0 1.271-1.418l.011-.021a3.83 3.83 0 0 0 .403-1.244l.002-.021c.06.058.123.113.189.165l.005.004c.5.374 1.07.704 1.677.964l.054.021c.238.104.542.214.852.307l.061.016a8 8 0 0 0 2.287.327c.21 0 .417-.008.623-.023l-.027.002c.135-.01.27-.024.404-.033l.013.444v.029l1.057.43z"/><path style="fill:var(--color9, #000)" d="M16.39 8.433a6.222 6.222 0 0 1-1.885 1.995l-.022.014a11.185 11.185 0 0 1-2.71 1.373l-.08.024-3.432-2.42a9.229 9.229 0 0 1 2.323-3.401l.006-.006c.266-.242.558-.468.867-.669l.026-.016 1.136.718z"/></symbol><symbol id="icon-search" viewBox="0 0 32 32"><path stroke-linejoin="round" stroke-linecap="round" stroke-width="2.667" d="M14.667 25.333c5.891 0 10.667-4.776 10.667-10.667S20.558 3.999 14.667 3.999 4 8.775 4 14.666s4.776 10.667 10.667 10.667zM28 28.001l-5.8-5.8"/></symbol><symbol id="icon-close" viewBox="0 0 32 32"><path stroke-width="2.133" d="m8.533 8.533 14.933 14.933M8.533 23.467 23.466 8.534"/></symbol><symbol id="icon-heart" viewBox="0 0 32 32"><path d="m16 30.583-2.24-2.24C5.44 20.983 0 16.023 0 9.943c0-4.96 3.84-8.8 8.8-8.8 2.72 0 5.44 1.28 7.2 3.36 1.76-2.08 4.48-3.36 7.2-3.36 4.96 0 8.8 3.84 8.8 8.8 0 6.08-5.44 11.04-13.76 18.4L16 30.583z"/></symbol><symbol id="icon-dots" viewBox="0 0 32 32"><path d="M5.175 12.8c.85 0 1.506.244 1.969.731.463.475.694 1.075.694 1.8 0 .712-.231 1.306-.694 1.781-.463.462-1.119.694-1.969.694-.813 0-1.456-.231-1.931-.694s-.712-1.056-.712-1.781c0-.725.231-1.325.694-1.8.462-.488 1.113-.731 1.95-.731zm10.725 0c.85 0 1.506.244 1.969.731.463.475.694 1.075.694 1.8 0 .712-.231 1.306-.694 1.781-.462.462-1.119.694-1.969.694-.813 0-1.456-.231-1.931-.694s-.712-1.056-.712-1.781c0-.725.231-1.325.694-1.8.463-.488 1.112-.731 1.95-.731zm10.725 0c.85 0 1.506.244 1.969.731.462.475.694 1.075.694 1.8 0 .712-.231 1.306-.694 1.781-.462.462-1.119.694-1.969.694-.812 0-1.456-.231-1.931-.694s-.712-1.056-.712-1.781c0-.725.231-1.325.694-1.8.462-.488 1.112-.731 1.95-.731z"/></symbol><symbol id="icon-arrow-right" viewBox="0 0 32 32"><path stroke-linejoin="round" stroke-linecap="round" stroke-width="2.667" d="M6.667 16h18.667M16 25.334l9.333-9.333L16 6.668"/></symbol><symbol id="icon-arrow-left" viewBox="0 0 32 32"><path stroke-linejoin="round" stroke-linecap="round" stroke-width="2.667" d="M25.333 16H6.666M16 25.334l-9.333-9.333L16 6.668"/></symbol><symbol id="icon-film" viewBox="0 0 32 32"><path stroke-linejoin="round" stroke-linecap="round" stroke-width="2.667" d="M26.427 2.667H5.574a2.907 2.907 0 0 0-2.907 2.907v20.853a2.907 2.907 0 0 0 2.907 2.907h20.853a2.907 2.907 0 0 0 2.907-2.907V5.574a2.907 2.907 0 0 0-2.907-2.907zM9.333 2.667v26.667M22.667 2.667v26.667M2.667 16h26.667M2.667 9.333h6.667M2.667 22.667h6.667M22.667 22.667h6.667M22.667 9.333h6.667"/></symbol><symbol id="icon-thElement" viewBox="0 0 32 32">
<path d="M13.62 16.672v-1.047c0-0.172 0.048-0.311 0.144-0.417s0.242-0.159 0.44-0.159c0.197 0 0.343 0.053 0.44 0.159s0.144 0.245 0.144 0.417v0.625h-0.98v0.422c0 0.242 0.166 0.363 0.497 0.363 0.135 0 0.273-0.021 0.415-0.064v0.183c-0.127 0.037-0.266 0.056-0.415 0.056-0.457 0.001-0.685-0.179-0.685-0.538zM13.807 16.081h0.793v-0.456c0-0.272-0.132-0.408-0.396-0.408s-0.396 0.136-0.396 0.408v0.456z"></path>
<path d="M15.292 14.525h0.187v2.667h-0.187v-2.667z"></path>
<path d="M16.002 16.672v-1.047c0-0.172 0.048-0.311 0.144-0.417s0.242-0.159 0.44-0.159c0.197 0 0.343 0.053 0.44 0.159s0.144 0.245 0.144 0.417v0.625h-0.98v0.422c0 0.242 0.166 0.363 0.497 0.363 0.135 0 0.273-0.021 0.415-0.064v0.183c-0.127 0.037-0.266 0.056-0.415 0.056-0.456 0.001-0.685-0.179-0.685-0.538zM16.19 16.081h0.793v-0.456c0-0.272-0.132-0.408-0.396-0.408s-0.396 0.136-0.396 0.408v0.456z"></path>
<path d="M18.699 15.24c0.179-0.107 0.355-0.161 0.525-0.161s0.301 0.044 0.392 0.131c0.091 0.087 0.137 0.209 0.137 0.367v1.616h-0.187v-1.616c0-0.217-0.107-0.325-0.321-0.325-0.155 0-0.309 0.048-0.463 0.146 0.017 0.050 0.026 0.11 0.026 0.179v1.616h-0.187v-1.616c0-0.217-0.107-0.325-0.321-0.325-0.135 0-0.28 0.037-0.438 0.112v1.829h-0.187v-2.106h0.183v0.097c0.175-0.070 0.321-0.105 0.442-0.105 0.175 0.001 0.308 0.054 0.4 0.161z"></path>
<path d="M20.258 16.672v-1.047c0-0.172 0.048-0.311 0.144-0.417s0.242-0.159 0.44-0.159c0.197 0 0.343 0.053 0.44 0.159s0.144 0.245 0.144 0.417v0.625h-0.98v0.422c0 0.242 0.166 0.363 0.497 0.363 0.135 0 0.273-0.021 0.415-0.064v0.183c-0.128 0.037-0.266 0.056-0.415 0.056-0.456 0.001-0.685-0.179-0.685-0.538zM20.445 16.081h0.793v-0.456c0-0.272-0.132-0.408-0.396-0.408s-0.396 0.136-0.396 0.408v0.456z"></path>
<path d="M22.114 15.184c0.175-0.070 0.331-0.105 0.47-0.105s0.253 0.044 0.344 0.131c0.091 0.087 0.137 0.209 0.137 0.367v1.616h-0.187v-1.616c0-0.217-0.107-0.325-0.321-0.325-0.135 0-0.28 0.037-0.438 0.112v1.829h-0.187v-2.106h0.183v0.098z"></path>
<path d="M23.774 14.697v0.389h0.513v0.168h-0.513v1.503c0 0.1 0.024 0.171 0.071 0.213s0.122 0.064 0.224 0.064c0.102 0 0.188-0.013 0.258-0.037v0.172c-0.075 0.023-0.177 0.034-0.305 0.034s-0.233-0.038-0.314-0.114c-0.081-0.076-0.122-0.187-0.122-0.331v-1.503h-0.243v-0.168h0.247l0.052-0.389h0.13z"></path>
<path d="M9.801 15.954c-0.093 0-0.171 0.017-0.232 0.052v0.473c0 0.151 0.074 0.227 0.22 0.227s0.22-0.076 0.22-0.227v-0.329c-0.001-0.131-0.070-0.197-0.209-0.197z"></path>
<path d="M10.383 13.29c-1.497 0-2.711 1.213-2.711 2.711s1.213 2.711 2.711 2.711 2.711-1.213 2.711-2.711-1.214-2.711-2.711-2.711zM9.012 15.73l-0.81 0.282 0.81 0.285v0.232l-1.035-0.388v-0.252l1.035-0.391v0.232zM10.266 16.486c0 0.137-0.039 0.246-0.118 0.327s-0.199 0.122-0.36 0.122c-0.161 0-0.282-0.041-0.36-0.122s-0.118-0.191-0.118-0.327v-0.991c0-0.137 0.043-0.247 0.127-0.331s0.209-0.126 0.371-0.126c0.163 0 0.29 0.017 0.383 0.052v0.244c-0.097-0.039-0.214-0.058-0.353-0.058-0.181 0-0.271 0.080-0.271 0.238v0.266c0.071-0.033 0.169-0.049 0.292-0.049s0.222 0.035 0.296 0.104c0.074 0.069 0.111 0.17 0.111 0.301v0.351zM10.783 15.92c-0.001 0-0.005 0.001-0.013 0.003s-0.015 0.003-0.023 0.005c-0.024 0.005-0.047 0.008-0.069 0.008-0.124 0-0.187-0.060-0.187-0.181v-0.485h-0.080v-0.108h0.084l0.037-0.137h0.084v0.137h0.155v0.108h-0.155v0.476c0 0.052 0.027 0.077 0.080 0.077 0.026 0 0.054-0.005 0.087-0.016v0.114zM11.334 15.928h-0.128v-0.575c0-0.052-0.026-0.078-0.078-0.078-0.040 0-0.078 0.009-0.116 0.028v0.626h-0.126v-0.971h0.126v0.229c0.045-0.019 0.094-0.029 0.146-0.029s0.094 0.015 0.127 0.044c0.033 0.029 0.049 0.073 0.049 0.131v0.596zM11.547 16.53v-0.232l0.813-0.285-0.813-0.282v-0.232l1.037 0.391v0.252l-1.037 0.389z"></path>
</symbol></defs></svg>