<svg aria-hidden="true" style="position: absolute; width: 0; height: 0; overflow: hidden;" version="1.1" xmlns="http://www.w3.org/2000/svg" xmlns:xlink="http://www.w3.org/1999/xlink">
<defs>
<symbol id="light-mode-toggle-icon" viewBox="0 0 64 32">
<path d="M16 0h0.023c2.753 0 5.353 0.707 7.624 1.95h26.293c3.861 0 7.374 1.581 9.921 4.129 2.548 2.543 4.129 6.057 4.129 9.921s-1.582 7.378-4.127 9.923l-0.053 0.047c-2.542 2.518-6.035 4.079-9.871 4.079h-26.288c-2.271 1.241-4.872 1.95-7.629 1.95h-0.023c-4.399 0-8.401-1.801-11.301-4.699-2.898-2.898-4.699-6.899-4.699-11.301s1.8-8.404 4.698-11.302l0.114-0.104c2.893-2.838 6.848-4.594 11.188-4.594zM15.256 6.801v1.619c0 0.245 0.099 0.466 0.26 0.626 0.344 0.344 0.909 0.344 1.252 0 0.16-0.16 0.26-0.382 0.26-0.626v-1.619c-0-0.235-0.092-0.449-0.242-0.606l-0.017-0.020c-0.344-0.344-0.91-0.345-1.252 0.001-0.16 0.159-0.26 0.381-0.26 0.625zM16.012 10.697c-1.464 0-2.79 0.595-3.751 1.553-0.959 0.96-1.553 2.285-1.553 3.749s0.595 2.79 1.553 3.749c0.961 0.96 2.286 1.553 3.751 1.553s2.79-0.594 3.749-1.553c0.96-0.96 1.553-2.285 1.553-3.749 0-1.464-0.595-2.79-1.553-3.749-0.96-0.96-2.285-1.553-3.749-1.553zM8.972 10.030l1.146 1.145c0.174 0.171 0.4 0.259 0.625 0.259h-0c0 0 0.001 0 0.001 0 0.244 0 0.466-0.099 0.625-0.26 0.172-0.174 0.26-0.401 0.26-0.626v0c0-0 0-0 0-0 0-0.245-0.099-0.466-0.26-0.626l-1.145-1.145c-0.172-0.172-0.399-0.259-0.625-0.259-0.489 0-0.886 0.399-0.886 0.886v0c0 0.244 0.099 0.466 0.259 0.626zM6.813 16.755h1.617c0 0 0.001 0 0.001 0 0.244 0 0.466-0.099 0.626-0.259 0.159-0.16 0.259-0.382 0.259-0.626v0c0-0 0-0.001 0-0.001 0-0.489-0.396-0.885-0.885-0.885-0 0-0.001 0-0.001 0h-1.617c-0 0-0.001 0-0.001 0-0.235 0-0.449 0.092-0.607 0.242l-0.019 0.018c-0.344 0.342-0.345 0.909 0.001 1.251 0.159 0.16 0.381 0.26 0.625 0.26zM10.040 23.039l1.145-1.146c0.174-0.174 0.26-0.4 0.26-0.624v0c0-0.489-0.397-0.886-0.886-0.886h0c-0.001 0-0.001 0-0.002 0-0.235 0-0.448 0.092-0.606 0.242l-1.164 1.161c-0.174 0.174-0.259 0.4-0.259 0.626 0 0.49 0.397 0.885 0.886 0.885h-0c0 0 0.001 0 0.001 0 0.244 0 0.464-0.099 0.624-0.259zM16.766 25.2v-1.619c-0-0.244-0.099-0.466-0.259-0.626-0.345-0.344-0.909-0.344-1.254 0-0.159 0.16-0.259 0.381-0.259 0.626v1.619c0 0.235 0.092 0.449 0.242 0.606l0.016 0.019c0.344 0.344 0.91 0.345 1.252 0 0.16-0.159 0.26-0.382 0.26-0.625zM23.050 21.972l-1.146-1.145c-0.174-0.172-0.4-0.26-0.625-0.26-0.487 0-0.885 0.399-0.885 0.886v-0c0 0 0 0.001 0 0.001 0 0.244 0.099 0.466 0.259 0.626l1.145 1.145c0.172 0.172 0.4 0.259 0.626 0.259 0.487 0 0.885-0.4 0.885-0.886v0c0-0.001 0-0.002 0-0.002 0-0.244-0.099-0.464-0.259-0.624zM25.211 15.245h-1.618c-0 0-0.001 0-0.001 0-0.244 0-0.465 0.099-0.625 0.26-0.345 0.344-0.345 0.909 0 1.252 0.159 0.16 0.381 0.26 0.626 0.26h1.619c0.235-0.001 0.448-0.093 0.606-0.242l0.019-0.017c0.344-0.344 0.345-0.909 0-1.252-0.159-0.159-0.384-0.26-0.625-0.26zM21.983 8.961l-1.145 1.146c-0.172 0.174-0.26 0.4-0.26 0.625 0 0.489 0.397 0.886 0.886 0.886h0c0.235-0.001 0.449-0.092 0.607-0.241l1.165-1.164c0.172-0.172 0.259-0.399 0.259-0.625 0-0.487-0.4-0.886-0.887-0.886v0c-0.244 0-0.465 0.099-0.625 0.259zM26.253 3.728c0.37 0.309 0.726 0.634 1.066 0.975 2.902 2.893 4.703 6.895 4.703 11.297s-1.802 8.402-4.699 11.301c-0.332 0.331-0.678 0.649-1.037 0.951l-0.025 0.020h23.679c3.353 0 6.404-1.364 8.626-3.562l0.040-0.044c2.223-2.223 3.606-5.293 3.606-8.666s-1.382-6.443-3.606-8.667c-2.221-2.225-5.29-3.604-8.666-3.604h-23.686zM16 1.89c-7.76 0-14.11 6.35-14.11 14.11 0 7.761 6.358 14.11 14.11 14.11h0.023c7.753 0 14.109-6.349 14.109-14.11 0-7.76-6.349-14.11-14.109-14.11h-0.023z"></path>
</symbol>
</defs>
</svg>
